# xmcd CD database file
#
# Track frame offsets:
#	150
#	3760
#	34483
#	73778
#	112418
#	155525
#
# Disc length: 2704 seconds
#
# Revision: 0
# Processed by: cddbd v1.5.2PL0 Copyright (c) Steve Scherf et al.
# Submitted via: CDex 1.79
#
DISCID=4f0a8e06
DTITLE=Michal Gera Band - Jazz at Prague Castle
DYEAR=2007
DGENRE=Jazz
TTITLE0=V. Klaus
TTITLE1=Berenica
TTITLE2=Mistr D
TTITLE3=April
TTITLE4=Alarica
TTITLE5=Magomanie
EXTD=YEAR: 2007
EXTT0=
EXTT1=
EXTT2=
EXTT3=
EXTT4=
EXTT5=
PLAYORDER=
